<svg t="1761231720409" class="icon" viewBox="0 0 1024 1024" version="1.1"
    xmlns="http://www.w3.org/2000/svg" p-id="12927" width="200" height="200">
    <path
        d="M251.278 64v143.213l51.41-47.738c39.169-41.617 85.683-69.158 139.541-82.623s107.716-13.464 161.574 0c53.858 13.464 100.984 40.393 141.377 80.787 40.393 40.393 67.934 87.519 82.623 141.377s14.689 107.716 0 161.574-41.617 101.596-80.787 143.213L387.147 960l-47.738-47.738 356.197-359.869c31.825-29.377 53.858-65.486 66.098-108.328s12.24-85.683 0-128.525-33.661-79.563-64.262-110.164-67.322-51.41-110.164-62.426-85.071-11.016-126.689 0-78.339 32.437-110.164 64.262l-66.098 66.098h176.262v66.098h-242.36l-33.049-33.049V64h66.098z"
        p-id="12928"></path>
</svg>