<svg t="1763693650495" class="icon" viewBox="0 0 1024 1024" version="1.1" xmlns="http://www.w3.org/2000/svg" p-id="18375" width="200" height="200"><path d="M638.839954 306.468571q-6.070857 5.266286-9.362285 12.507429-3.364571 7.314286-3.364572 15.286857 0 3.657143 0.731429 7.168t2.048 6.802286q1.389714 3.364571 3.364571 6.363428 2.048 2.925714 4.534857 5.558858 2.56 2.486857 5.558857 4.534857 2.998857 1.974857 6.363429 3.364571 3.291429 1.389714 6.802286 2.048 3.584 0.731429 7.168 0.731429 6.582857 0 12.726857-2.267429 6.144-2.267429 11.117714-6.582857 36.059429-31.012571 83.675429-32.914286l2.048-0.073143q36.644571-3.510857 71.314285 8.923429 34.669714 12.434286 60.708572 38.473143 26.112 26.112 38.546286 60.708571 12.434286 34.742857 8.923428 71.387429-0.292571 3.510857 0 7.021714 3.510857 36.644571-8.923428 71.314286-12.434286 34.669714-38.473143 60.708571-26.112 26.112-60.708572 38.546286-34.742857 12.434286-71.387428 8.923429L768.741669 694.857143q-52.077714 0-110.884572-58.002286-39.424-38.912-115.273143-145.993143-79.579429-112.347429-123.611428-155.794285-79.286857-78.262857-160.475429-78.994286-52.077714-4.681143-101.302857 13.019428-50.102857 17.993143-87.771429 55.588572-37.595429 37.668571-55.588571 87.771428Q-3.646903 460.8 0.595383 512q-4.169143 51.2 13.165714 99.547429 18.066286 50.102857 55.661714 87.771428 37.668571 37.595429 87.771429 55.588572 49.371429 17.773714 101.668571 13.092571 74.605714-1.828571 131.364572-50.468571 6.070857-5.266286 9.508571-12.507429 3.291429-7.314286 3.291429-15.286857 0-3.657143-0.731429-7.168t-2.048-6.802286q-1.389714-3.364571-3.364571-6.363428-2.048-2.925714-4.534857-5.558858-2.56-2.486857-5.558857-4.534857-2.998857-1.974857-6.363429-3.364571-3.291429-1.389714-6.802286-2.048-3.584-0.731429-7.168-0.731429-6.582857 0-12.653714 2.267429-6.144 2.267429-11.117714 6.582857-37.376 31.963429-86.601143 32.914286l-2.852572 0.073143q-36.644571 3.510857-71.314285-8.923429-34.669714-12.434286-60.708572-38.473143-26.112-26.112-38.546285-60.708571-12.434286-34.742857-8.923429-71.387429 0.292571-3.510857 0-7.021714-3.510857-36.644571 8.923429-71.314286 12.434286-34.669714 38.473142-60.708571 26.112-26.112 60.708572-38.546286 34.742857-12.434286 71.387428-8.923429L256.741669 329.142857q52.077714 0 110.884571 58.002286 39.424 38.912 115.273143 145.993143 79.579429 112.347429 123.611428 155.794285 79.286857 78.262857 160.475429 78.994286 52.077714 4.681143 101.302857-13.019428 50.102857-17.993143 87.771429-55.588572 37.595429-37.668571 55.588571-87.771428 17.408-48.420571 13.165714-99.547429 4.242286-51.2-13.165714-99.547429-17.993143-50.102857-55.588571-87.771428-37.668571-37.595429-87.771429-55.588572-49.590857-17.846857-102.034286-13.019428-72.338286 3.218286-127.341714 50.468571z" p-id="18376"></path></svg>