<svg t="1758265098427" class="icon" viewBox="0 0 1024 1024" version="1.1"
    xmlns="http://www.w3.org/2000/svg" p-id="15582" width="200" height="200">
    <path
        d="M696.32 412.16h-61.44c-46.08 0-87.04-38.4-92.16-84.48V99.84c0-48.64 33.28-89.6 76.8-97.28C624.64 0 629.76 0 634.88 0h296.96c43.52 0 87.04 38.4 92.16 84.48V314.88c0 38.4-17.92 66.56-51.2 87.04-12.8 7.68-25.6 10.24-43.52 10.24H696.32zM652.8 66.56c-25.6 0-48.64 23.04-48.64 51.2v181.76c0 7.68 2.56 15.36 5.12 20.48 7.68 20.48 23.04 30.72 43.52 30.72h263.68c25.6 0 48.64-20.48 48.64-48.64V117.76c0-28.16-23.04-48.64-48.64-48.64H785.92L652.8 66.56z m0 0M250.88 1021.44H89.6c-23.04 0-43.52-10.24-64-30.72C10.24 972.8 0 949.76 0 921.6V709.12c0-48.64 30.72-87.04 76.8-97.28 5.12 0 10.24-2.56 15.36-2.56H389.12c43.52 0 84.48 35.84 92.16 81.92V916.48c0 28.16-7.68 53.76-25.6 71.68-17.92 20.48-40.96 33.28-64 33.28h-140.8z m-140.8-348.16c-28.16 0-48.64 23.04-48.64 51.2v181.76c0 28.16 23.04 51.2 48.64 51.2h258.56c7.68 0 12.8-2.56 20.48-5.12 20.48-10.24 28.16-25.6 28.16-48.64V729.6c0-12.8-2.56-23.04-7.68-30.72-10.24-15.36-23.04-23.04-43.52-23.04H163.84c-15.36-2.56-33.28-2.56-53.76-2.56z m0 0M40.96 337.92h61.44c15.36 0 20.48-5.12 20.48-20.48 0-28.16 5.12-56.32 10.24-81.92 15.36-58.88 46.08-110.08 89.6-151.04 43.52-40.96 92.16-66.56 151.04-79.36C386.56 2.56 396.8 2.56 409.6 0h10.24v64h-7.68c-23.04 0-46.08 5.12-69.12 15.36-25.6 10.24-51.2 28.16-74.24 48.64-28.16 25.6-48.64 53.76-61.44 87.04-10.24 25.6-17.92 51.2-20.48 81.92V320c0 12.8 5.12 17.92 15.36 17.92h74.24L158.72 458.24 40.96 337.92z m0 0M611.84 957.44h7.68c15.36 0 25.6-2.56 43.52-7.68 33.28-7.68 64-25.6 89.6-48.64 40.96-35.84 69.12-79.36 81.92-130.56 7.68-25.6 10.24-46.08 10.24-66.56 0-12.8-5.12-20.48-17.92-20.48H755.2L872.96 563.2l56.32 58.88 61.44 64H934.4c-20.48 0-23.04 2.56-25.6 25.6-2.56 69.12-23.04 133.12-64 186.88-28.16 38.4-64 69.12-107.52 92.16-33.28 17.92-64 28.16-99.84 30.72h-12.8l-12.8 2.56v-66.56z m0 0"
        p-id="15583"></path>
</svg>